<?xml version="1.0" encoding="UTF-8" standalone="no"?><!DOCTYPE svg PUBLIC "-//W3C//DTD SVG 1.1//EN" "http://www.w3.org/Graphics/SVG/1.1/DTD/svg11.dtd">
<svg width="100%" height="100%" viewBox="0 0 375 812" version="1.1" 
    xmlns="http://www.w3.org/2000/svg" 
    xmlns:xlink="http://www.w3.org/1999/xlink" xml:space="preserve" 
    xmlns:serif="http://www.serif.com/" style="fill-rule:evenodd;clip-rule:evenodd;stroke-linecap:round;stroke-linejoin:round;stroke-miterlimit:1.5;">
    <rect id="Artboard1" x="0" y="0" width="375" height="812" style="fill:none;"/>
    <clipPath id="_clip1">
        <rect id="Artboard11" serif:id="Artboard1" x="0" y="0" width="375" height="812"/>
    </clipPath>
    <g clip-path="url(#_clip1)">
        <rect x="0" y="0" width="375" height="812" style="fill:#F8F8F8;"/>
        <g id="Planet">
            <circle cx="187.5" cy="406" r="87.5" style="fill:url(#_Linear2);stroke:#464646;stroke-width:4px;"/>
            <path d="M102.667,422c-0.185,1.735 20.569,-1.02 28,22.402c5.642,17.788 24.033,16.991 34,18.598" style="fill:url(#_Linear3);stroke:#464646;stroke-width:4px;"/>
            <path d="M145.333,347c4.303,0.935 51.739,-4.963 60.667,34.667c3.91,17.357 8.518,25.8 14.39,28.666c8.634,4.214 22.399,-4.359 34.277,-4.333" style="fill:url(#_Linear4);stroke:#464646;stroke-width:4px;"/>
            <path d="M126.333,392c0,0 32.428,-1.137 44,35.667c8.948,28.455 49.769,11.619 68,13.333c8.443,0.794 9.674,3.076 16.334,1.915c7.042,-1.227 13.845,-5.953 15.333,-8.248" style="fill:url(#_Linear5);stroke:#464646;stroke-width:4px;"/>
            <path d="M126.333,399c0,0 17.137,0.124 24.667,11.893" style="fill:url(#_Linear6);stroke:#464646;stroke-width:4px;"/>
            <path d="M230.667,429.667c-0.889,0.229 10.368,-6.401 20.333,0c8.701,5.589 21.045,-7.632 22.667,-9.667" style="fill:url(#_Linear7);stroke:#464646;stroke-width:4px;"/>
            <path d="M153.333,415.333l0.667,1.667" style="fill:none;stroke:#464646;stroke-width:4px;"/>
            <path d="M260,406c2.591,0.148 10.908,-0.743 14.177,-5.941" style="fill:url(#_Linear8);stroke:#464646;stroke-width:4px;"/>
            <path d="M246.667,397.152l0.666,0" style="fill:none;stroke:#464646;stroke-width:4px;"/>
            <path d="M252.637,397.135c0,0 6.162,0.088 8.392,-0.135" style="fill:url(#_Linear9);stroke:#464646;stroke-width:4px;"/>
            <path d="M266.333,396.667c6.271,-0.097 6.217,-4.581 7,-6" style="fill:url(#_Linear10);stroke:#464646;stroke-width:4px;"/>
        </g>
        <g id="dot-stars" serif:id="dot stars">
            <circle cx="76.5" cy="242.5" r="1.833"/>
            <circle cx="97.591" cy="302.292" r="1.167"/>
            <circle cx="122.925" cy="508.792" r="1.167"/>
            <circle cx="54.833" cy="288.5" r="1.5"/>
            <circle cx="63.167" cy="471" r="1.5"/>
            <circle cx="315.782" cy="443.817" r="1.5"/>
            <circle cx="314.449" cy="514.422" r="1.5"/>
            <circle cx="269.167" cy="491.422" r="0.833"/>
            <circle cx="240.833" cy="572.755" r="0.833"/>
            <ellipse cx="276.297" cy="314.042" rx="1.5" ry="1.458"/>
            <circle cx="34.667" cy="339.667" r="1.667"/>
            <circle cx="47.333" cy="528.389" r="1.667"/>
            <circle cx="78.175" cy="511.031" r="2.583"/>
            <circle cx="141.242" cy="250" r="1.333"/>
            <circle cx="230.617" cy="518.389" r="1.333"/>
            <circle cx="317.282" cy="407.333" r="1.333"/>
            <circle cx="212.212" cy="554.785" r="1.333"/>
            <circle cx="302.212" cy="359.748" r="2.333"/>
            <path d="M21.854,489.003c-0.347,0.634 -1.143,0.867 -1.777,0.521c-0.634,-0.347 -0.867,-1.143 -0.521,-1.777c0.347,-0.634 1.143,-0.867 1.777,-0.52c0.634,0.346 0.867,1.142 0.521,1.776Z"/>
            <path d="M81.854,343.27c-0.347,0.634 -1.143,0.868 -1.777,0.521c-0.634,-0.347 -0.867,-1.143 -0.521,-1.777c0.347,-0.633 1.143,-0.867 1.777,-0.52c0.634,0.346 0.867,1.142 0.521,1.776Z"/>
            <path d="M92.187,558.055c-0.347,0.634 -1.143,0.867 -1.777,0.521c-0.634,-0.347 -0.867,-1.143 -0.52,-1.777c0.346,-0.634 1.142,-0.867 1.776,-0.52c0.634,0.346 0.867,1.142 0.521,1.776Z"/>
            <path d="M39.424,431.842c-0.346,0.634 -1.142,0.867 -1.776,0.521c-0.634,-0.347 -0.867,-1.143 -0.521,-1.777c0.347,-0.634 1.143,-0.867 1.777,-0.521c0.634,0.347 0.867,1.143 0.52,1.777Z"/>
            <path d="M344.142,425.326c0.347,0.634 1.143,0.867 1.777,0.521c0.634,-0.347 0.867,-1.143 0.521,-1.777c-0.347,-0.634 -1.143,-0.867 -1.777,-0.52c-0.634,0.346 -0.867,1.142 -0.521,1.776Z"/>
            <path d="M300.04,275.969c0.346,0.617 1.142,0.843 1.776,0.507c0.634,-0.337 0.867,-1.111 0.521,-1.728c-0.347,-0.616 -1.143,-0.843 -1.777,-0.506c-0.634,0.337 -0.867,1.111 -0.52,1.727Z"/>
            <circle cx="235.833" cy="243.167" r="2.833"/>
            <circle cx="132.621" cy="539.886" r="2.833"/>
            <circle cx="256.29" cy="540.927" r="2.833"/>
        </g>
        <g id="diamond-stars" serif:id="diamond stars" opacity="0.75">
            <path d="M71.317,428.851c0.396,-0.769 0.573,-1.397 0.399,-1.961c-0.166,-0.536 -0.647,-1.013 -1.554,-1.498c1.642,0.873 2.686,0.589 3.514,-0.977c-0.783,1.398 -0.463,2.547 1.155,3.46c-1.318,-0.735 -2.716,-0.519 -3.514,0.976Z" style="stroke:#000;stroke-width:0.5px;"/>
            <path d="M255.883,289.626c-0.19,-0.825 -0.202,-1.46 0.108,-1.945c0.294,-0.46 0.879,-0.784 1.878,-1.005c-1.807,0.395 -2.743,-0.141 -3.149,-1.826c0.404,1.515 -0.194,2.512 -1.986,2.95c1.458,-0.349 2.754,0.216 3.149,1.826Z" style="stroke:#000;stroke-width:0.5px;"/>
            <path d="M71.317,428.851c0.396,-0.769 0.573,-1.397 0.399,-1.961c-0.166,-0.536 -0.647,-1.013 -1.554,-1.498c1.642,0.873 2.686,0.589 3.514,-0.977c-0.783,1.398 -0.463,2.547 1.155,3.46c-1.318,-0.735 -2.716,-0.519 -3.514,0.976Z" style="stroke:#000;stroke-width:0.5px;"/>
            <path d="M55.082,384.569c-0.269,-0.776 -0.585,-1.309 -1.086,-1.559c-0.477,-0.237 -1.12,-0.219 -2.048,0.087c1.676,-0.557 2.165,-1.46 1.631,-3.055c0.448,1.453 1.447,1.987 3.134,1.473c-1.368,0.424 -2.136,1.526 -1.631,3.054Z" style="stroke:#000;stroke-width:0.5px;"/>
            <path d="M299.879,480.471c-0.534,0.113 -0.945,0.116 -1.259,-0.084c-0.298,-0.189 -0.508,-0.561 -0.652,-1.194c0.258,1.144 -0.088,1.731 -1.178,1.974c0.98,-0.243 1.625,0.143 1.911,1.278c-0.228,-0.924 0.136,-1.738 1.178,-1.974Z" style="stroke:#000;stroke-width:0.5px;"/>
            <path d="M282.212,520.363c-0.533,-0.113 -0.944,-0.116 -1.258,0.084c-0.298,0.189 -0.509,0.561 -0.653,1.194c0.258,-1.144 -0.088,-1.731 -1.178,-1.974c0.98,0.243 1.626,-0.143 1.911,-1.278c-0.227,0.924 0.137,1.738 1.178,1.974Z" style="stroke:#000;stroke-width:0.5px;"/>
            <path d="M338.51,380.17c-0.727,0.07 -1.252,0.233 -1.572,0.614c-0.304,0.362 -0.422,0.921 -0.351,1.786c-0.133,-1.563 -0.811,-2.172 -2.298,-2.043c1.347,-0.085 2.016,-0.837 1.922,-2.4c0.082,1.269 0.874,2.161 2.299,2.043Z" style="stroke:#000;stroke-width:0.5px;"/>
            <path d="M98.758,274.949c1.244,-0.161 2.138,-0.469 2.667,-1.142c0.502,-0.639 0.675,-1.606 0.504,-3.088c0.315,2.678 1.513,3.688 4.063,3.384c-2.311,0.22 -3.418,1.549 -3.171,4.23c-0.211,-2.177 -1.622,-3.666 -4.063,-3.384Z" style="stroke:#000;stroke-width:0.5px;"/>
            <path d="M141.242,297.999c0.907,0.113 1.593,0.058 2.089,-0.32c0.47,-0.358 0.768,-1.009 0.918,-2.085c-0.267,1.946 0.395,2.876 2.248,3.126c-1.67,-0.266 -2.693,0.47 -3.007,2.405c0.248,-1.574 -0.476,-2.88 -2.248,-3.126Z" style="stroke:#000;stroke-width:0.5px;"/>
            <path d="M174.315,575.054c-0.907,0.113 -1.593,0.059 -2.089,-0.319c-0.47,-0.359 -0.768,-1.009 -0.918,-2.086c0.266,1.946 -0.395,2.877 -2.248,3.127c1.67,-0.266 2.693,0.469 3.007,2.405c-0.248,-1.574 0.475,-2.881 2.248,-3.127Z" style="stroke:#000;stroke-width:0.5px;"/>
            <path d="M333.704,322.772c-0.903,-0.134 -1.55,-0.371 -1.926,-0.867c-0.357,-0.472 -0.469,-1.179 -0.325,-2.256c-0.266,1.946 -1.152,2.665 -3.004,2.409c1.679,0.191 2.467,1.174 2.251,3.123c0.183,-1.583 1.231,-2.647 3.004,-2.409Z" style="stroke:#000;stroke-width:0.5px;"/>
            <path d="M180.907,264.951c2.268,-0.263 3.903,-0.801 4.882,-2.012c0.929,-1.15 1.267,-2.906 0.994,-5.608c0.506,4.882 2.662,6.749 7.31,6.259c-4.212,0.342 -6.259,2.735 -5.876,7.62c-0.33,-3.968 -2.861,-6.711 -7.31,-6.259Z" style="stroke:#000;stroke-width:0.5px;"/>
            <path d="M187.5,522.13c-2.268,-0.263 -3.903,-0.801 -4.882,-2.012c-0.929,-1.15 -1.267,-2.906 -0.994,-5.608c-0.505,4.882 -2.662,6.749 -7.309,6.259c4.211,0.343 6.259,2.735 5.876,7.62c0.329,-3.968 2.86,-6.711 7.309,-6.259Z" style="stroke:#000;stroke-width:0.5px;"/>
        </g>
    </g>
    <defs>
        <linearGradient id="_Linear2" x1="0" y1="0" x2="1" y2="0" gradientUnits="userSpaceOnUse" gradientTransform="matrix(87.4753,-183.833,183.833,87.4753,164.667,493.5)">
            <stop offset="0" style="stop-color:#3bfeff;stop-opacity:1"/>
            <stop offset="1" style="stop-color:#e2e2e2;stop-opacity:1"/>
        </linearGradient>
        <linearGradient id="_Linear3" x1="0" y1="0" x2="1" y2="0" gradientUnits="userSpaceOnUse" gradientTransform="matrix(87.4753,-183.833,183.833,87.4753,164.667,493.5)">
            <stop offset="0" style="stop-color:#3bfeff;stop-opacity:1"/>
            <stop offset="1" style="stop-color:#e2e2e2;stop-opacity:1"/>
        </linearGradient>
        <linearGradient id="_Linear4" x1="0" y1="0" x2="1" y2="0" gradientUnits="userSpaceOnUse" gradientTransform="matrix(87.4753,-183.833,183.833,87.4753,164.667,493.5)">
            <stop offset="0" style="stop-color:#3bfeff;stop-opacity:1"/>
            <stop offset="1" style="stop-color:#e2e2e2;stop-opacity:1"/>
        </linearGradient>
        <linearGradient id="_Linear5" x1="0" y1="0" x2="1" y2="0" gradientUnits="userSpaceOnUse" gradientTransform="matrix(87.4753,-183.833,183.833,87.4753,164.667,493.5)">
            <stop offset="0" style="stop-color:#3bfeff;stop-opacity:1"/>
            <stop offset="1" style="stop-color:#e2e2e2;stop-opacity:1"/>
        </linearGradient>
        <linearGradient id="_Linear6" x1="0" y1="0" x2="1" y2="0" gradientUnits="userSpaceOnUse" gradientTransform="matrix(87.4753,-183.833,183.833,87.4753,164.667,493.5)">
            <stop offset="0" style="stop-color:#3bfeff;stop-opacity:1"/>
            <stop offset="1" style="stop-color:#e2e2e2;stop-opacity:1"/>
        </linearGradient>
        <linearGradient id="_Linear7" x1="0" y1="0" x2="1" y2="0" gradientUnits="userSpaceOnUse" gradientTransform="matrix(87.4753,-183.833,183.833,87.4753,164.667,493.5)">
            <stop offset="0" style="stop-color:#3bfeff;stop-opacity:1"/>
            <stop offset="1" style="stop-color:#e2e2e2;stop-opacity:1"/>
        </linearGradient>
        <linearGradient id="_Linear8" x1="0" y1="0" x2="1" y2="0" gradientUnits="userSpaceOnUse" gradientTransform="matrix(87.4753,-183.833,183.833,87.4753,164.667,493.5)">
            <stop offset="0" style="stop-color:#3bfeff;stop-opacity:1"/>
            <stop offset="1" style="stop-color:#e2e2e2;stop-opacity:1"/>
        </linearGradient>
        <linearGradient id="_Linear9" x1="0" y1="0" x2="1" y2="0" gradientUnits="userSpaceOnUse" gradientTransform="matrix(87.4753,-183.833,183.833,87.4753,164.667,493.5)">
            <stop offset="0" style="stop-color:#3bfeff;stop-opacity:1"/>
            <stop offset="1" style="stop-color:#e2e2e2;stop-opacity:1"/>
        </linearGradient>
        <linearGradient id="_Linear10" x1="0" y1="0" x2="1" y2="0" gradientUnits="userSpaceOnUse" gradientTransform="matrix(87.4753,-183.833,183.833,87.4753,164.667,493.5)">
            <stop offset="0" style="stop-color:#3bfeff;stop-opacity:1"/>
            <stop offset="1" style="stop-color:#e2e2e2;stop-opacity:1"/>
        </linearGradient>
    </defs>
</svg>