<svg xmlns="http://www.w3.org/2000/svg" xmlns:xlink="http://www.w3.org/1999/xlink" width="375" height="812" viewBox="0 0 375 812">
  <defs>
    <filter id="Path_6" x="72" y="348" width="147" height="57" filterUnits="userSpaceOnUse">
      <feOffset dx="3" dy="3" input="SourceAlpha"/>
      <feGaussianBlur result="blur"/>
      <feFlood flood-opacity="0.235"/>
      <feComposite operator="in" in2="blur"/>
      <feComposite in="SourceGraphic"/>
    </filter>
    <filter id="Path_17" x="72" y="583" width="147" height="57" filterUnits="userSpaceOnUse">
      <feOffset dx="3" dy="3" input="SourceAlpha"/>
      <feGaussianBlur result="blur-2"/>
      <feFlood flood-opacity="0.235"/>
      <feComposite operator="in" in2="blur-2"/>
      <feComposite in="SourceGraphic"/>
    </filter>
    <filter id="Ellipse_5" x="320" y="314.91" width="49.251" height="49.251" filterUnits="userSpaceOnUse">
      <feOffset dx="1" dy="1" input="SourceAlpha"/>
      <feGaussianBlur stdDeviation="2" result="blur-3"/>
      <feFlood flood-opacity="0.082"/>
      <feComposite operator="in" in2="blur-3"/>
      <feComposite in="SourceGraphic"/>
    </filter>
    <linearGradient id="linear-gradient" x1="0.563" x2="0.575" y2="0.908" gradientUnits="objectBoundingBox">
      <stop offset="0" stop-color="#ffecad"/>
      <stop offset="0.483" stop-color="#f6f4a1"/>
      <stop offset="1" stop-color="#eaff91"/>
    </linearGradient>
    <clipPath id="clip-path">
      <path id="Path_30" data-name="Path 30" d="M1054.326,280.865V241h352.642l-62.132,51.785h-290.51Z" transform="translate(-1082 7.104)" fill="#a1d8fc" stroke="#000" stroke-width="1"/>
    </clipPath>
    <clipPath id="clip-Goal">
      <rect width="375" height="812"/>
    </clipPath>
  </defs>
  <g id="Goal" clip-path="url(#clip-Goal)">
    <rect width="375" height="812" fill="#005aa7"/>
    <path id="Path_18" data-name="Path 18" d="M0,0V107.684" transform="translate(43 392)" fill="none" stroke="#fffde4" stroke-width="2"/>
    <path id="Path_19" data-name="Path 19" d="M0,0V51.954" transform="translate(41 622)" fill="none" stroke="#fffde4" stroke-width="2"/>
    <line id="Line_4" data-name="Line 4" y2="44" transform="translate(42 768)" fill="none" stroke="#fffde4" stroke-width="2"/>
    <text id="_08:00" data-name="08:00" transform="translate(23 378)" fill="#fffde4" font-size="13" font-family="Hind-Medium, Hind" font-weight="500" letter-spacing="0.12em"><tspan x="0" y="0">08:00</tspan></text>
    <text id="_9:00" data-name="9:00" transform="translate(27 521)" fill="#fff" font-size="13" font-family="Hind-Medium, Hind" font-weight="500" letter-spacing="0.12em"><tspan x="0" y="0">9:00</tspan></text>
    <text id="_9:00-2" data-name="9:00" transform="translate(27 613)" fill="#fff" font-size="13" font-family="Hind-Medium, Hind" font-weight="500" letter-spacing="0.12em"><tspan x="0" y="0">9:00</tspan></text>
    <text id="_9:30" data-name="9:30" transform="translate(27 695)" fill="#fff" font-size="13" font-family="Hind-Medium, Hind" font-weight="500" letter-spacing="0.12em"><tspan x="0" y="0">9:30</tspan></text>
    <text id="_11:30" data-name="11:30" transform="translate(27 755)" fill="#fff" font-size="13" font-family="Hind-Medium, Hind" font-weight="500" letter-spacing="0.12em"><tspan x="0" y="0">11:30</tspan></text>
    <g transform="matrix(1, 0, 0, 1, 0, 0)" filter="url(#Path_6)">
      <path id="Path_6-2" data-name="Path 6" d="M1354,387l9-4.8V360h135v54H1363V391.521Z" transform="translate(-1282 -12)" fill="#5cf6fc"/>
    </g>
    <g transform="matrix(1, 0, 0, 1, 0, 0)" filter="url(#Path_17)">
      <path id="Path_17-2" data-name="Path 17" d="M1354,387l9-4.8V360h135v54H1363V391.521Z" transform="translate(-1282 223)" fill="#fffde4"/>
    </g>
    <g id="Group_6" data-name="Group 6" transform="translate(-8 17)">
      <g transform="matrix(1, 0, 0, 1, 8, -17)" filter="url(#Ellipse_5)">
        <ellipse id="Ellipse_5-2" data-name="Ellipse 5" cx="18.625" cy="18.625" rx="18.625" ry="18.625" transform="translate(325 319.91)" fill="#fc5c7d"/>
      </g>
      <text id="_" data-name="+" transform="translate(340.567 333)" fill="#fff" font-size="32" font-family="Futura-Bold, Futura" font-weight="700" letter-spacing="0.12em"><tspan x="0" y="0">+</tspan></text>
    </g>
    <text id="finish_introduction" data-name="finish 
introduction" transform="translate(105 372)" fill="#080808" font-size="13" font-family="Hind-Medium, Hind" font-weight="500" letter-spacing="0.12em"><tspan x="0" y="0">finish </tspan><tspan x="0" y="13">introduction</tspan></text>
    <text id="flow_chart_for_main_content" data-name="flow chart for 
main content" transform="translate(99 607)" fill="#080808" font-size="13" font-family="Hind-Medium, Hind" font-weight="500" letter-spacing="0.12em"><tspan x="0" y="0">flow chart for </tspan><tspan x="0" y="13">main content</tspan></text>
    <g id="Rectangle_18" data-name="Rectangle 18" stroke="#707070" stroke-width="1" fill="url(#linear-gradient)">
      <rect width="375" height="275" stroke="none"/>
      <rect x="0.5" y="0.5" width="374" height="274" fill="none"/>
    </g>
    <path id="Polygon_12" data-name="Polygon 12" d="M119,0,238,88H0Z" transform="translate(76 170)" fill="#ff8da4" opacity="0.842"/>
    <path id="Path_26" data-name="Path 26" d="M144,0,288,124.9H0Z" transform="translate(-73 152)" fill="#ff5377"/>
    <path id="Polygon_6" data-name="Polygon 6" d="M77.5,0,155,67H0Z" transform="translate(5 206)" fill="#ff365f"/>
    <path id="Path_29" data-name="Path 29" d="M109.374,1.812,211,76.361H0Z" transform="translate(76 196.639)" fill="#f47062"/>
    <path id="Path_27" data-name="Path 27" d="M140.272,21.346,281,116H0Z" transform="translate(131 157)" fill="#f47062"/>
    <path id="Path_16" data-name="Path 16" d="M182.864,12.594,307.223,120.675,53.959,117.757Z" transform="translate(171.041 148)" fill="#fc5c7d"/>
    <path id="river_" data-name="river " d="M1274,247.359s40.049-24.528,86.677,0,100.121,0,100.121,0,52.735-23.259,100.367,0,115.973-24.491,115.973-24.491l-25.745-13.912s-35.264,25.789-90.229,13.912-76.044-10.737-110.994,0-37.581,16.2-80.772,0-95.4,0-95.4,0Z" transform="translate(-1274 41.397)" fill="#fffde4" stroke="#000" stroke-width="1"/>
    <circle id="Ellipse_3" data-name="Ellipse 3" cx="20.5" cy="20.5" r="20.5" transform="translate(31 60)" fill="#ff0"/>
    <text id="_08:45" data-name="08:45" transform="translate(264 58)" font-size="28" font-family="Hind-Medium, Hind" font-weight="500" letter-spacing="0.12em"><tspan x="0" y="0">08:45</tspan></text>
    <g id="Mask_Group_1" data-name="Mask Group 1" clip-path="url(#clip-path)">
      <path id="river_overlay" data-name="river overlay" d="M1274,247.359s40.049-24.528,86.677,0,100.121,0,100.121,0,52.735-23.259,100.367,0,115.973-24.491,115.973-24.491l-25.745-13.912s-35.264,25.789-90.229,13.912-76.044-10.737-110.994,0-37.581,16.2-80.772,0-95.4,0-95.4,0Z" transform="translate(-1274 41.397)" fill="#a1d8fc" stroke="#000" stroke-width="1"/>
      <path id="Path_31" data-name="Path 31" d="M1287,260.9s3.6-3.664,11.931-1.777,11.835,0,11.835,0,7.12-2.969,12.256,0" transform="translate(-1274 5)" fill="none" stroke="#000" stroke-linecap="round" stroke-width="1"/>
      <path id="Path_32" data-name="Path 32" d="M1287,260.9s3.6-3.664,11.931-1.777,11.835,0,11.835,0,7.12-2.969,12.256,0" transform="translate(-1017.665 -143.108) rotate(7)" fill="none" stroke="#000" stroke-linecap="round" stroke-width="1"/>
      <path id="Path_33" data-name="Path 33" d="M1287,261.458s2.424-4.321,8.023-2.1,7.959,0,7.959,0,4.788-3.5,8.242,0" transform="matrix(0.978, 0.208, -0.208, 0.978, -1090.631, -231.427)" fill="none" stroke="#000" stroke-linecap="round" stroke-width="1"/>
      <path id="Path_34" data-name="Path 34" d="M1312.983,270.807s4.932-4.2,10.222-1.318a11.436,11.436,0,0,0,11.471-.468" transform="translate(-1274)" fill="none" stroke="#000" stroke-linecap="round" stroke-width="1"/>
      <path id="Path_35" data-name="Path 35" d="M1312.983,270.807s4.932-4.2,10.222-1.318a11.436,11.436,0,0,0,11.471-.468" transform="translate(-1101 -4)" fill="none" stroke="#000" stroke-linecap="round" stroke-width="1"/>
      <path id="Path_36" data-name="Path 36" d="M1312.983,273.118s7.734-8.364,16.03-2.628,15.956.743,17.987-.932" transform="matrix(0.995, 0.105, -0.105, 0.995, -1163.405, -124.538)" fill="none" stroke="#000" stroke-linecap="round" stroke-width="1"/>
      <path id="Path_37" data-name="Path 37" d="M1316.48,250a3.663,3.663,0,0,1,4.146.633c1.928,1.825,5.765.72,5.765.72" transform="translate(-1007 25)" fill="none" stroke="#000" stroke-width="1"/>
    </g>
    <g id="Rectangle_66" data-name="Rectangle 66" transform="translate(10 338)" fill="none" stroke="red" stroke-width="1" opacity="0.004">
      <rect width="328" height="403" stroke="none"/>
      <rect x="0.5" y="0.5" width="327" height="402" fill="none"/>
    </g>
    <g id="Rectangle_67" data-name="Rectangle 67" transform="translate(18 344)" fill="none" stroke="red" stroke-width="1" opacity="0.004">
      <rect width="311" height="217" stroke="none"/>
      <rect x="0.5" y="0.5" width="310" height="216" fill="none"/>
    </g>
    <g id="Rectangle_68" data-name="Rectangle 68" transform="translate(23 348)" fill="none" stroke="red" stroke-width="1" opacity="0.004">
      <rect width="302" height="58" stroke="none"/>
      <rect x="0.5" y="0.5" width="301" height="57" fill="none"/>
    </g>
  </g>
</svg>
